<svg width="358.07185167765425" height="261.35625" viewBox="0 0 300 218.96966944663367" class="looka-1j8o68f"><defs id="SvgjsDefs1939"></defs><g id="SvgjsG1940" featurekey="JjiT9w-0" transform="matrix(0.9531373413325418,0,0,0.9531373413325418,89.04686265866746,-10.007942083991688)" fill="#f3f6f6"><g xmlns="http://www.w3.org/2000/svg"><polygon fill="#f3f6f6" points="36.2,10.5 41.3,31.4 61.5,39.1 43.1,50.3 42,71.8 25.5,57.9 4.6,63.4 12.8,43.6 1,25.6 22.6,27.2     "></polygon><polygon fill="#f3f6f6" points="59.3,71.8 62.5,84.7 75,89.4 63.6,96.4 62.9,109.6 52.7,101 39.8,104.5 44.9,92.2 37.6,81.1    50.9,82.1  "></polygon><path fill="#f3f6f6" d="M70.3,39.6L47.9,53.2l-0.8,14.6c29.7-8,79.8,15.5,79.8,15.5C108.5,62.6,87.2,48.5,70.3,39.6z"></path><path fill="#f3f6f6" d="M81.6,91.2l-13.2,8.1l-0.4,8.2c18.5-3.5,47.4,10,47.4,10C104.4,105.2,91.9,96.8,81.6,91.2z"></path></g></g><g id="SvgjsG1941" featurekey="j7RXiA-0" transform="matrix(5.411254428288865,0,0,5.411254428288865,-3.246762784600516,90.50648281673232)" fill="#f3f6f6"><path d="M5.02 18.12 q1.36 0 1.98 -0.46 t0.62 -1.3 q0 -0.5 -0.21 -0.86 t-0.6 -0.65 t-0.95 -0.54 t-1.28 -0.49 q-0.72 -0.26 -1.39 -0.57 t-1.18 -0.77 t-0.82 -1.1 t-0.31 -1.54 q0 -1.88 1.3 -2.95 t3.54 -1.07 q1.3 0 2.31 0.29 t1.59 0.63 l-0.78 2.04 q-0.68 -0.38 -1.49 -0.58 t-1.67 -0.2 q-1.02 0 -1.59 0.42 t-0.57 1.18 q0 0.46 0.19 0.79 t0.54 0.59 t0.82 0.48 t1.03 0.42 q0.98 0.36 1.75 0.73 t1.3 0.88 t0.81 1.2 t0.28 1.67 q0 1.88 -1.33 2.91 t-3.89 1.03 q-0.86 0 -1.57 -0.11 t-1.26 -0.27 t-0.95 -0.33 t-0.64 -0.31 l0.74 -2.06 q0.54 0.3 1.46 0.6 t2.22 0.3 z M12.22 6.779999999999999 l2.42 -0.4 l0 3.16 l3.72 0 l0 2.02 l-3.72 0 l0 4.26 q0 1.26 0.4 1.8 t1.36 0.54 q0.66 0 1.17 -0.14 t0.81 -0.26 l0.4 1.92 q-0.42 0.18 -1.1 0.37 t-1.6 0.19 q-1.12 0 -1.87 -0.3 t-1.19 -0.87 t-0.62 -1.38 t-0.18 -1.85 l0 -9.06 z M24.38 18.3 q1.12 0 1.7 -0.12 l0 -2.68 q-0.2 -0.06 -0.58 -0.12 t-0.84 -0.06 q-0.4 0 -0.81 0.06 t-0.74 0.22 t-0.53 0.45 t-0.2 0.73 q0 0.86 0.54 1.19 t1.46 0.33 z M24.18 9.28 q1.2 0 2.02 0.3 t1.31 0.84 t0.7 1.31 t0.21 1.69 l0 6.34 q-0.56 0.12 -1.69 0.29 t-2.55 0.17 q-0.94 0 -1.72 -0.18 t-1.33 -0.58 t-0.86 -1.04 t-0.31 -1.58 q0 -0.9 0.35 -1.52 t0.95 -1.01 t1.39 -0.56 t1.65 -0.17 q0.4 0 0.84 0.05 t0.94 0.17 l0 -0.4 q0 -0.42 -0.1 -0.8 t-0.35 -0.67 t-0.66 -0.45 t-1.03 -0.16 q-0.84 0 -1.54 0.12 t-1.14 0.28 l-0.3 -1.96 q0.46 -0.16 1.34 -0.32 t1.88 -0.16 z M37.34 11.72 q-0.3 -0.1 -0.83 -0.21 t-1.23 -0.11 q-0.4 0 -0.85 0.08 t-0.63 0.14 l0 8.38 l-2.42 0 l0 -9.96 q0.7 -0.26 1.75 -0.49 t2.33 -0.23 q0.24 0 0.56 0.03 t0.64 0.08 t0.62 0.12 t0.48 0.13 z M45.4 11.72 q-0.3 -0.1 -0.83 -0.21 t-1.23 -0.11 q-0.4 0 -0.85 0.08 t-0.63 0.14 l0 8.38 l-2.42 0 l0 -9.96 q0.7 -0.26 1.75 -0.49 t2.33 -0.23 q0.24 0 0.56 0.03 t0.64 0.08 t0.62 0.12 t0.48 0.13 z M56.04 9.54 q-1.62 5.96 -3.76 10.8 q-0.4 0.9 -0.82 1.54 t-0.94 1.06 t-1.16 0.61 t-1.48 0.19 q-0.56 0 -1.11 -0.12 t-0.83 -0.26 l0.44 -1.94 q0.72 0.28 1.42 0.28 q0.94 0 1.47 -0.45 t0.93 -1.39 q-1.14 -2.2 -2.19 -4.8 t-1.87 -5.52 l2.58 0 q0.2 0.84 0.49 1.82 t0.63 1.99 t0.72 2.01 t0.76 1.86 q0.64 -1.78 1.2 -3.79 t1.02 -3.89 l2.5 0 z"></path></g></svg>