<svg class="css-ze2te4 css-qd6ojx" viewBox="0 0 120 101.98568825072115"><g transform="translate(-0.9531373413325418, -10.007942083991688) scale(0.9531373413325418)" class="css-t21665" fill="#f3f6f6"><g xmlns="http://www.w3.org/2000/svg"><polygon fill="{{COLOR}}" points="36.2,10.5 41.3,31.4 61.5,39.1 43.1,50.3 42,71.8 25.5,57.9 4.6,63.4 12.8,43.6 1,25.6 22.6,27.2     "></polygon><polygon fill="{{COLOR}}" points="59.3,71.8 62.5,84.7 75,89.4 63.6,96.4 62.9,109.6 52.7,101 39.8,104.5 44.9,92.2 37.6,81.1    50.9,82.1  "></polygon><path fill="{{COLOR}}" d="M70.3,39.6L47.9,53.2l-0.8,14.6c29.7-8,79.8,15.5,79.8,15.5C108.5,62.6,87.2,48.5,70.3,39.6z"></path><path fill="{{COLOR}}" d="M81.6,91.2l-13.2,8.1l-0.4,8.2c18.5-3.5,47.4,10,47.4,10C104.4,105.2,91.9,96.8,81.6,91.2z"></path></g></g></svg>